<svg xmlns="http://www.w3.org/2000/svg" xmlns:xlink="http://www.w3.org/1999/xlink" width="800" height="200pt" viewBox="0 0 600 200"><defs><clipPath id="a"><path d="M37 37h126v126H37zm0 0"/></clipPath><clipPath id="b"><path d="M162.5 100l-.04 37.566-.116 5.559-.192 3.598-.277 2.695-.355 2.156-.446 1.793-.535 1.524-.633 1.308-.738 1.133-.852.984-.984.852-1.133.738-1.308.633-1.524.535-1.793.446-2.156.355-2.695.277-3.598.192-5.559.117-37.53.039-37.602-.04-5.559-.116-3.598-.192-2.695-.277-2.156-.355-1.793-.446-1.524-.535-1.308-.633-1.133-.738-.984-.852-.852-.984-.738-1.133-.633-1.308-.535-1.524-.446-1.793-.355-2.156-.277-2.695-.192-3.598-.117-5.559-.039-37.523.04-37.61.116-5.558.192-3.598.277-2.695.355-2.156.446-1.793.535-1.524.633-1.308.738-1.133.852-.984.984-.852 1.133-.738 1.308-.633 1.524-.535 1.793-.446 2.156-.355 2.695-.277 3.598-.192 5.559-.117 37.523-.039 37.61.04 5.558.116 3.598.192 2.695.277 2.156.355 1.793.446 1.524.535 1.308.633 1.133.738.984.852.852.984.738 1.133.633 1.308.535 1.524.446 1.793.355 2.156.277 2.695.192 3.598.117 5.559.039 37.52zm0 0"/></clipPath><clipPath id="c"><path d="M37 114h66v49H37zm0 0"/></clipPath><clipPath id="d"><path d="M162.5 100l-.04 37.566-.116 5.559-.192 3.598-.277 2.695-.355 2.156-.446 1.793-.535 1.524-.633 1.308-.738 1.133-.852.984-.984.852-1.133.738-1.308.633-1.524.535-1.793.446-2.156.355-2.695.277-3.598.192-5.559.117-37.53.039-37.602-.04-5.559-.116-3.598-.192-2.695-.277-2.156-.355-1.793-.446-1.524-.535-1.308-.633-1.133-.738-.984-.852-.852-.984-.738-1.133-.633-1.308-.535-1.524-.446-1.793-.355-2.156-.277-2.695-.192-3.598-.117-5.559-.039-37.523.04-37.61.116-5.558.192-3.598.277-2.695.355-2.156.446-1.793.535-1.524.633-1.308.738-1.133.852-.984.984-.852 1.133-.738 1.308-.633 1.524-.535 1.793-.446 2.156-.355 2.695-.277 3.598-.192 5.559-.117 37.523-.039 37.61.04 5.558.116 3.598.192 2.695.277 2.156.355 1.793.446 1.524.535 1.308.633 1.133.738.984.852.852.984.738 1.133.633 1.308.535 1.524.446 1.793.355 2.156.277 2.695.192 3.598.117 5.559.039 37.52zm0 0"/></clipPath><clipPath id="e"><path d="M37 110h69v53H37zm0 0"/></clipPath><clipPath id="f"><path d="M162.5 100l-.04 37.566-.116 5.559-.192 3.598-.277 2.695-.355 2.156-.446 1.793-.535 1.524-.633 1.308-.738 1.133-.852.984-.984.852-1.133.738-1.308.633-1.524.535-1.793.446-2.156.355-2.695.277-3.598.192-5.559.117-37.53.039-37.602-.04-5.559-.116-3.598-.192-2.695-.277-2.156-.355-1.793-.446-1.524-.535-1.308-.633-1.133-.738-.984-.852-.852-.984-.738-1.133-.633-1.308-.535-1.524-.446-1.793-.355-2.156-.277-2.695-.192-3.598-.117-5.559-.039-37.523.04-37.61.116-5.558.192-3.598.277-2.695.355-2.156.446-1.793.535-1.524.633-1.308.738-1.133.852-.984.984-.852 1.133-.738 1.308-.633 1.524-.535 1.793-.446 2.156-.355 2.695-.277 3.598-.192 5.559-.117 37.523-.039 37.61.04 5.558.116 3.598.192 2.695.277 2.156.355 1.793.446 1.524.535 1.308.633 1.133.738.984.852.852.984.738 1.133.633 1.308.535 1.524.446 1.793.355 2.156.277 2.695.192 3.598.117 5.559.039 37.52zm0 0"/></clipPath><clipPath id="g"><path d="M37 37h66v49H37zm0 0"/></clipPath><clipPath id="h"><path d="M162.5 100l-.04 37.566-.116 5.559-.192 3.598-.277 2.695-.355 2.156-.446 1.793-.535 1.524-.633 1.308-.738 1.133-.852.984-.984.852-1.133.738-1.308.633-1.524.535-1.793.446-2.156.355-2.695.277-3.598.192-5.559.117-37.53.039-37.602-.04-5.559-.116-3.598-.192-2.695-.277-2.156-.355-1.793-.446-1.524-.535-1.308-.633-1.133-.738-.984-.852-.852-.984-.738-1.133-.633-1.308-.535-1.524-.446-1.793-.355-2.156-.277-2.695-.192-3.598-.117-5.559-.039-37.523.04-37.61.116-5.558.192-3.598.277-2.695.355-2.156.446-1.793.535-1.524.633-1.308.738-1.133.852-.984.984-.852 1.133-.738 1.308-.633 1.524-.535 1.793-.446 2.156-.355 2.695-.277 3.598-.192 5.559-.117 37.523-.039 37.61.04 5.558.116 3.598.192 2.695.277 2.156.355 1.793.446 1.524.535 1.308.633 1.133.738.984.852.852.984.738 1.133.633 1.308.535 1.524.446 1.793.355 2.156.277 2.695.192 3.598.117 5.559.039 37.52zm0 0"/></clipPath><clipPath id="i"><path d="M37 37h70v53H37zm0 0"/></clipPath><clipPath id="j"><path d="M162.5 100l-.04 37.566-.116 5.559-.192 3.598-.277 2.695-.355 2.156-.446 1.793-.535 1.524-.633 1.308-.738 1.133-.852.984-.984.852-1.133.738-1.308.633-1.524.535-1.793.446-2.156.355-2.695.277-3.598.192-5.559.117-37.53.039-37.602-.04-5.559-.116-3.598-.192-2.695-.277-2.156-.355-1.793-.446-1.524-.535-1.308-.633-1.133-.738-.984-.852-.852-.984-.738-1.133-.633-1.308-.535-1.524-.446-1.793-.355-2.156-.277-2.695-.192-3.598-.117-5.559-.039-37.523.04-37.61.116-5.558.192-3.598.277-2.695.355-2.156.446-1.793.535-1.524.633-1.308.738-1.133.852-.984.984-.852 1.133-.738 1.308-.633 1.524-.535 1.793-.446 2.156-.355 2.695-.277 3.598-.192 5.559-.117 37.523-.039 37.61.04 5.558.116 3.598.192 2.695.277 2.156.355 1.793.446 1.524.535 1.308.633 1.133.738.984.852.852.984.738 1.133.633 1.308.535 1.524.446 1.793.355 2.156.277 2.695.192 3.598.117 5.559.039 37.52zm0 0"/></clipPath><clipPath id="k"><path d="M97 37h66v49H97zm0 0"/></clipPath><clipPath id="l"><path d="M162.5 100l-.04 37.566-.116 5.559-.192 3.598-.277 2.695-.355 2.156-.446 1.793-.535 1.524-.633 1.308-.738 1.133-.852.984-.984.852-1.133.738-1.308.633-1.524.535-1.793.446-2.156.355-2.695.277-3.598.192-5.559.117-37.53.039-37.602-.04-5.559-.116-3.598-.192-2.695-.277-2.156-.355-1.793-.446-1.524-.535-1.308-.633-1.133-.738-.984-.852-.852-.984-.738-1.133-.633-1.308-.535-1.524-.446-1.793-.355-2.156-.277-2.695-.192-3.598-.117-5.559-.039-37.523.04-37.61.116-5.558.192-3.598.277-2.695.355-2.156.446-1.793.535-1.524.633-1.308.738-1.133.852-.984.984-.852 1.133-.738 1.308-.633 1.524-.535 1.793-.446 2.156-.355 2.695-.277 3.598-.192 5.559-.117 37.523-.039 37.61.04 5.558.116 3.598.192 2.695.277 2.156.355 1.793.446 1.524.535 1.308.633 1.133.738.984.852.852.984.738 1.133.633 1.308.535 1.524.446 1.793.355 2.156.277 2.695.192 3.598.117 5.559.039 37.52zm0 0"/></clipPath><clipPath id="m"><path d="M94 37h69v53H94zm0 0"/></clipPath><clipPath id="n"><path d="M162.5 100l-.04 37.566-.116 5.559-.192 3.598-.277 2.695-.355 2.156-.446 1.793-.535 1.524-.633 1.308-.738 1.133-.852.984-.984.852-1.133.738-1.308.633-1.524.535-1.793.446-2.156.355-2.695.277-3.598.192-5.559.117-37.53.039-37.602-.04-5.559-.116-3.598-.192-2.695-.277-2.156-.355-1.793-.446-1.524-.535-1.308-.633-1.133-.738-.984-.852-.852-.984-.738-1.133-.633-1.308-.535-1.524-.446-1.793-.355-2.156-.277-2.695-.192-3.598-.117-5.559-.039-37.523.04-37.61.116-5.558.192-3.598.277-2.695.355-2.156.446-1.793.535-1.524.633-1.308.738-1.133.852-.984.984-.852 1.133-.738 1.308-.633 1.524-.535 1.793-.446 2.156-.355 2.695-.277 3.598-.192 5.559-.117 37.523-.039 37.61.04 5.558.116 3.598.192 2.695.277 2.156.355 1.793.446 1.524.535 1.308.633 1.133.738.984.852.852.984.738 1.133.633 1.308.535 1.524.446 1.793.355 2.156.277 2.695.192 3.598.117 5.559.039 37.52zm0 0"/></clipPath><clipPath id="o"><path d="M97 114h66v49H97zm0 0"/></clipPath><clipPath id="p"><path d="M162.5 100l-.04 37.566-.116 5.559-.192 3.598-.277 2.695-.355 2.156-.446 1.793-.535 1.524-.633 1.308-.738 1.133-.852.984-.984.852-1.133.738-1.308.633-1.524.535-1.793.446-2.156.355-2.695.277-3.598.192-5.559.117-37.53.039-37.602-.04-5.559-.116-3.598-.192-2.695-.277-2.156-.355-1.793-.446-1.524-.535-1.308-.633-1.133-.738-.984-.852-.852-.984-.738-1.133-.633-1.308-.535-1.524-.446-1.793-.355-2.156-.277-2.695-.192-3.598-.117-5.559-.039-37.523.04-37.61.116-5.558.192-3.598.277-2.695.355-2.156.446-1.793.535-1.524.633-1.308.738-1.133.852-.984.984-.852 1.133-.738 1.308-.633 1.524-.535 1.793-.446 2.156-.355 2.695-.277 3.598-.192 5.559-.117 37.523-.039 37.61.04 5.558.116 3.598.192 2.695.277 2.156.355 1.793.446 1.524.535 1.308.633 1.133.738.984.852.852.984.738 1.133.633 1.308.535 1.524.446 1.793.355 2.156.277 2.695.192 3.598.117 5.559.039 37.52zm0 0"/></clipPath><clipPath id="q"><path d="M93 110h70v53H93zm0 0"/></clipPath><clipPath id="r"><path d="M162.5 100l-.04 37.566-.116 5.559-.192 3.598-.277 2.695-.355 2.156-.446 1.793-.535 1.524-.633 1.308-.738 1.133-.852.984-.984.852-1.133.738-1.308.633-1.524.535-1.793.446-2.156.355-2.695.277-3.598.192-5.559.117-37.53.039-37.602-.04-5.559-.116-3.598-.192-2.695-.277-2.156-.355-1.793-.446-1.524-.535-1.308-.633-1.133-.738-.984-.852-.852-.984-.738-1.133-.633-1.308-.535-1.524-.446-1.793-.355-2.156-.277-2.695-.192-3.598-.117-5.559-.039-37.523.04-37.61.116-5.558.192-3.598.277-2.695.355-2.156.446-1.793.535-1.524.633-1.308.738-1.133.852-.984.984-.852 1.133-.738 1.308-.633 1.524-.535 1.793-.446 2.156-.355 2.695-.277 3.598-.192 5.559-.117 37.523-.039 37.61.04 5.558.116 3.598.192 2.695.277 2.156.355 1.793.446 1.524.535 1.308.633 1.133.738.984.852.852.984.738 1.133.633 1.308.535 1.524.446 1.793.355 2.156.277 2.695.192 3.598.117 5.559.039 37.52zm0 0"/></clipPath><symbol overflow="visible" id="s"><path d="M14.91 0h7.211l-6.055-10.148c3.043-1.614 4.48-3.465 4.48-6.618 0-5.18-3.433-7.558-10.222-7.558H1.891V0h6.472v-8.96h1.785zM8.363-19.809h1.82c2.454 0 3.712.946 3.712 3.043 0 2.344-1.157 3.395-3.36 3.395H8.363zm0 0"/></symbol><symbol overflow="visible" id="t"><path d="M18.727-9.625c0-6.16-3.43-9.66-8.856-9.66-5.95 0-8.996 4.515-8.996 10.047C.875-3.465 4.023.629 10.57.629c3.114 0 5.633-1.152 7.453-2.66l-2.52-3.43c-1.608 1.121-2.901 1.645-4.339 1.645-2.168 0-3.605-.7-3.953-3.707h11.41c.035-.633.106-1.508.106-2.102zm-6.125-1.54H7.176c.246-3.116 1.152-4.097 2.8-4.097 1.993 0 2.59 1.649 2.626 3.887zm0 0"/></symbol><symbol overflow="visible" id="u"><path d="M18.55-18.656h-6.335L9.203-4.586l-2.797-14.07H-.352L5.461 0h7.383zm0 0"/></symbol><symbol overflow="visible" id="v"><path d="M4.898-28.7c-2.097 0-3.57 1.505-3.57 3.43 0 1.926 1.473 3.43 3.57 3.43 2.102 0 3.57-1.504 3.57-3.43 0-1.925-1.468-3.43-3.57-3.43zm3.118 10.044h-6.23V0h6.23zm0 0"/></symbol><symbol overflow="visible" id="w"><path d="M8.855-19.285c-5.003 0-7.875 2.59-7.875 5.879 0 2.906 1.856 4.867 5.426 5.918 3.29.976 3.778 1.222 3.778 2.308 0 .98-.875 1.47-2.344 1.47-1.75 0-3.465-.77-4.828-1.821L.035-2.203C1.891-.488 4.762.629 8.015.629c4.9 0 8.54-2.414 8.54-6.266 0-3.36-1.996-4.898-5.602-5.949-3.43-1.05-3.777-1.398-3.777-2.203 0-.664.594-1.121 1.926-1.121 1.539 0 3.113.523 4.511 1.398l2.242-3.43c-1.714-1.433-4.27-2.343-7-2.343zm0 0"/></symbol><symbol overflow="visible" id="x"><path d="M42.602 0h20.597L45.9-29c8.703-4.602 12.8-9.898 12.8-18.898C58.7-62.7 48.9-69.5 29.5-69.5H5.398V0h18.5v-25.602H29zM23.898-56.602h5.204c7 0 10.597 2.704 10.597 8.704 0 6.699-3.3 9.699-9.597 9.699h-6.204zm0 0"/></symbol><symbol overflow="visible" id="y"><path d="M53.5-27.5c0-17.602-9.8-27.602-25.3-27.602-17 0-25.7 12.903-25.7 28.704 0 16.5 9 28.199 27.7 28.199 8.902 0 16.1-3.301 21.3-7.602l-7.2-9.8c-4.6 3.203-8.3 4.703-12.402 4.703-6.199 0-10.296-2-11.296-10.602h32.597c.102-1.8.301-4.3.301-6zM36-31.898H20.5c.7-8.903 3.3-11.704 8-11.704 5.7 0 7.398 4.704 7.5 11.102zm0 0"/></symbol><symbol overflow="visible" id="z"><path d="M53-53.3H34.898l-8.597 40.198-8-40.199H-1L15.602 0h21.097zm0 0"/></symbol><symbol overflow="visible" id="A"><path d="M14-82c-6 0-10.2 4.3-10.2 9.8 0 5.5 4.2 9.802 10.2 9.802 6 0 10.2-4.301 10.2-9.801S20-82 14-82zm8.898 28.7H5.102V0h17.796zm0 0"/></symbol></defs><g clip-path="url(#a)"><g clip-path="url(#b)"><path fill="#faebd7" d="M0 0h600v200H0z"/></g></g><g clip-path="url(#c)"><g clip-path="url(#d)"><path d="M49.492 187.691l.668-4.418.418-1.355-2.941-1.777-2.942-1.782-1.004.996-3.609 2.641-3.617-3.398 2.406-3.766.934-1.066-1.965-2.825-1.961-2.824-1.324.504-4.367.941-1.926-4.574 3.73-2.46 1.285-.598-.64-3.375-.645-3.375-1.418-.082-4.37-.914.1-4.965 4.41-.73 1.419-.02 1.57-6.696-1.262-.648-3.625-2.613 2.114-4.492 4.324 1.125 1.305.558 4.156-5.476-.887-1.106-2.246-3.863 3.758-3.242 3.492 2.785.965 1.039 6.023-3.313-.36-1.37-.483-4.442 4.753-1.434 2.06 3.965.456 1.344 6.852-.578.226-1.399 1.367-4.254 4.926.621.266 4.461-.13 1.414 3.247 1.13 3.246 1.132.777-1.187 2.98-3.332 4.247 2.574-1.57 4.183-.692 1.239 2.508 2.351L89 131.297l1.191-.766 4.079-1.832 2.832 4.078-3.137 3.184-1.133.848 1.332 3.168 1.332 3.171 1.399-.218 4.468-.012.93 4.875-4.16 1.633-1.38.312-.073 3.438-.07 3.437 1.367.371 4.085 1.805-1.132 4.836-4.465-.203-1.39-.274-1.462 3.11-1.465 3.11 1.098.898 3 3.312-3 3.953-3.996-2-1.16-.816-5.203 4.492.636 1.266 1.395 4.246-4.348 2.39-2.84-3.453-.726-1.215-3.29.993-3.292.992.07 1.418-.453 4.445-4.945.414-1.192-4.308-.168-1.407-3.41-.43-3.41-.433-.512 1.324-2.222 3.875zm0 0" fill="#389826"/></g></g><g clip-path="url(#e)"><g clip-path="url(#f)"><path d="M49.492 187.691l.668-4.418.418-1.355-2.941-1.777-2.942-1.782-1.004.996-3.609 2.641-3.617-3.398 2.406-3.766.934-1.066-1.965-2.825-1.961-2.824-1.324.504-4.367.941-1.926-4.574 3.73-2.46 1.285-.598-.64-3.375-.645-3.375-1.418-.082-4.37-.914.1-4.965 4.41-.73 1.419-.02 1.57-6.696-1.262-.648-3.625-2.613 2.114-4.492 4.324 1.125 1.305.558 4.156-5.476-.887-1.106-2.246-3.863 3.758-3.242 3.492 2.785.965 1.039 6.023-3.313-.36-1.37-.483-4.442 4.753-1.434 2.06 3.965.456 1.344 6.852-.578.226-1.399 1.367-4.254 4.926.621.266 4.461-.13 1.414 3.247 1.13 3.246 1.132.777-1.187 2.98-3.332 4.247 2.574-1.57 4.183-.692 1.239 2.508 2.351L89 131.297l1.191-.766 4.079-1.832 2.832 4.078-3.137 3.184-1.133.848 1.332 3.168 1.332 3.171 1.399-.218 4.468-.012.93 4.875-4.16 1.633-1.38.312-.073 3.438-.07 3.437 1.367.371 4.085 1.805-1.132 4.836-4.465-.203-1.39-.274-1.462 3.11-1.465 3.11 1.098.898 3 3.312-3 3.953-3.996-2-1.16-.816-5.203 4.492.636 1.266 1.395 4.246-4.348 2.39-2.84-3.453-.726-1.215-3.29.993-3.292.992.07 1.418-.453 4.445-4.945.414-1.192-4.308-.168-1.407-3.41-.43-3.41-.433-.512 1.324-2.222 3.875zm0 0" fill="none" stroke-width=".25" stroke="#000" stroke-miterlimit="10"/></g></g><g clip-path="url(#g)"><g clip-path="url(#h)"><path d="M45.2 80.55l1.214-4.3.586-1.293-2.695-2.133-2.696-2.136-1.12.863-3.91 2.168-3.165-3.828 2.86-3.434 1.058-.941-1.594-3.047-1.59-3.043-1.378.332-4.454.387-1.332-4.782 4.008-1.972 1.352-.43-.219-3.434-.215-3.43-1.394-.257-4.223-1.453.723-4.91 4.464-.176 1.41.156 1.2-3.219 1.2-3.222-1.173-.801-3.265-3.05 2.66-4.192 4.148 1.66 1.223.715 2.406-2.457 2.406-2.453-.742-1.211-1.746-4.114 4.133-2.746 3.117 3.203.828 1.153 6.39-2.532-.187-1.406.082-4.469 4.895-.824 1.543 4.192.285 1.386 3.434.145 3.437.144.398-1.359 1.891-4.05 4.809 1.234-.297 4.46-.3 1.383 3.077 1.532 3.078 1.527.922-1.078 3.371-2.93 3.89 3.082-2.081 3.953-.84 1.14 4.383 5.298 1.277-.61 4.274-1.304 2.3 4.398-3.511 2.762-1.23.703.921 3.309.926 3.312 1.418-.039 4.433.547.313 4.953-4.332 1.098-1.41.14-.504 3.399-.5 3.402 1.308.54 3.829 2.304-1.727 4.652-4.406-.758-1.344-.449-1.844 2.903-1.84 2.902.977 1.027 2.562 3.664-3.472 3.547-3.715-2.488-1.047-.953-5.726 3.804.472 1.336.852 4.387-4.614 1.828-2.382-3.781-.57-1.3-3.387.573-3.391.575-.11 1.414-1.007 4.351-4.961-.207-.637-4.422.008-1.418-3.328-.855-3.332-.856-.672 1.246-2.691 3.57zm0 0" fill="#cb3c33"/></g></g><g clip-path="url(#i)"><g clip-path="url(#j)"><path d="M45.2 80.55l1.214-4.3.586-1.293-2.695-2.133-2.696-2.136-1.12.863-3.91 2.168-3.165-3.828 2.86-3.434 1.058-.941-1.594-3.047-1.59-3.043-1.378.332-4.454.387-1.332-4.782 4.008-1.972 1.352-.43-.219-3.434-.215-3.43-1.394-.257-4.223-1.453.723-4.91 4.464-.176 1.41.156 1.2-3.219 1.2-3.222-1.173-.801-3.265-3.05 2.66-4.192 4.148 1.66 1.223.715 2.406-2.457 2.406-2.453-.742-1.211-1.746-4.114 4.133-2.746 3.117 3.203.828 1.153 6.39-2.532-.187-1.406.082-4.469 4.895-.824 1.543 4.192.285 1.386 3.434.145 3.437.144.398-1.359 1.891-4.05 4.809 1.234-.297 4.46-.3 1.383 3.077 1.532 3.078 1.527.922-1.078 3.371-2.93 3.89 3.082-2.081 3.953-.84 1.14 4.383 5.298 1.277-.61 4.274-1.304 2.3 4.398-3.511 2.762-1.23.703.921 3.309.926 3.312 1.418-.039 4.433.547.313 4.953-4.332 1.098-1.41.14-.504 3.399-.5 3.402 1.308.54 3.829 2.304-1.727 4.652-4.406-.758-1.344-.449-1.844 2.903-1.84 2.902.977 1.027 2.562 3.664-3.472 3.547-3.715-2.488-1.047-.953-5.726 3.804.472 1.336.852 4.387-4.614 1.828-2.382-3.781-.57-1.3-3.387.573-3.391.575-.11 1.414-1.007 4.351-4.961-.207-.637-4.422.008-1.418-3.328-.855-3.332-.856-.672 1.246-2.691 3.57zm0 0" fill="none" stroke-width=".25" stroke="#000" stroke-miterlimit="10"/></g></g><g clip-path="url(#k)"><g clip-path="url(#l)"><path d="M112.457 77.887l1.746-4.114.742-1.21-2.406-2.454-2.406-2.457-1.223.715-4.148 1.66-2.66-4.191 3.265-3.05 1.172-.802-1.2-3.222-1.198-3.219-1.41.156-4.465-.176-.723-4.91 4.223-1.453 1.394-.258.215-3.43.219-3.433-1.352-.43-4.008-1.972 1.332-4.782 4.454.387 1.378.332 1.59-3.043 1.594-3.047-1.059-.941-2.859-3.434 3.164-3.828 3.91 2.168 1.121.863 2.696-2.136 2.695-2.133-.586-1.293-1.215-4.3 4.446-2.208 2.69 3.57.673 1.247 3.332-.856 3.328-.855-.008-1.418.637-4.422 4.96-.207 1.009 4.351.109 1.414 3.39.575 3.387.574.57-1.3 2.383-3.782 4.614 1.828-.852 4.387-.472 1.336 5.726 3.804 1.047-.953 3.715-2.488 3.472 3.547-2.562 3.664-.977 1.027 1.84 2.902 1.844 2.903 1.344-.45 4.406-.757 1.727 4.652-3.829 2.305-1.308.539.5 3.402.504 3.399 1.41.14 4.332 1.098-.313 4.953-4.433.547-1.418-.04-.926 3.313-.922 3.309 1.23.703 3.512 2.762-2.3 4.398-4.274-1.304-1.277-.61-4.383 5.297.84 1.14 2.082 3.954-3.89 3.082-3.372-2.93-.922-1.078-3.078 1.527-3.078 1.532.3 1.382.298 4.461-4.809 1.235-1.89-4.051-.399-1.36-3.437.145-3.434.145-.285 1.386-1.543 4.192-4.895-.824-.082-4.47.188-1.405-6.39-2.532-.829 1.153-3.117 3.203zm0 0" fill="#9558b2"/></g></g><g clip-path="url(#m)"><g clip-path="url(#n)"><path d="M112.457 77.887l1.746-4.114.742-1.21-2.406-2.454-2.406-2.457-1.223.715-4.148 1.66-2.66-4.191 3.265-3.05 1.172-.802-1.2-3.222-1.198-3.219-1.41.156-4.465-.176-.723-4.91 4.223-1.453 1.394-.258.215-3.43.219-3.433-1.352-.43-4.008-1.972 1.332-4.782 4.454.387 1.378.332 1.59-3.043 1.594-3.047-1.059-.941-2.859-3.434 3.164-3.828 3.91 2.168 1.121.863 2.696-2.136 2.695-2.133-.586-1.293-1.215-4.3 4.446-2.208 2.69 3.57.673 1.247 3.332-.856 3.328-.855-.008-1.418.637-4.422 4.96-.207 1.009 4.351.109 1.414 3.39.575 3.387.574.57-1.3 2.383-3.782 4.614 1.828-.852 4.387-.472 1.336 5.726 3.804 1.047-.953 3.715-2.488 3.472 3.547-2.562 3.664-.977 1.027 1.84 2.902 1.844 2.903 1.344-.45 4.406-.757 1.727 4.652-3.829 2.305-1.308.539.5 3.402.504 3.399 1.41.14 4.332 1.098-.313 4.953-4.433.547-1.418-.04-.926 3.313-.922 3.309 1.23.703 3.512 2.762-2.3 4.398-4.274-1.304-1.277-.61-4.383 5.297.84 1.14 2.082 3.954-3.89 3.082-3.372-2.93-.922-1.078-3.078 1.527-3.078 1.532.3 1.382.298 4.461-4.809 1.235-1.89-4.051-.399-1.36-3.437.145-3.434.145-.285 1.386-1.543 4.192-4.895-.824-.082-4.47.188-1.405-6.39-2.532-.829 1.153-3.117 3.203zm0 0" fill="none" stroke-width=".25" stroke="#000" stroke-miterlimit="10"/></g></g><g clip-path="url(#o)"><g clip-path="url(#p)"><path d="M108.832 179.742l2.246-3.863.887-1.106-4.156-5.476-1.305.558-4.324 1.125-2.114-4.492 3.625-2.613 1.262-.648-1.57-6.696-1.418-.02-4.41-.73-.102-4.965 4.371-.914 1.418-.082.645-3.375.64-3.375-1.285-.597-3.73-2.461 1.925-4.575 4.368.942 1.324.504 1.96-2.824 1.966-2.825-.934-1.066-2.406-3.766 3.617-3.398 3.61 2.64 1.003.997 2.942-1.782 2.941-1.777-.418-1.355-.668-4.418 4.688-1.633 2.222 3.875.512 1.324 3.41-.434 3.41-.43.168-1.406 1.192-4.308 4.945.414.453 4.445-.07 1.418 3.293.992 3.289.993.726-1.215 2.84-3.453 4.348 2.39-1.395 4.246-.636 1.266 5.203 4.492 1.16-.816 3.996-2 3 3.953-3 3.312-1.098.899 1.465 3.11 1.461 3.109 1.39-.274 4.466-.203 1.132 4.836-4.085 1.805-1.368.37.07 3.438.075 3.438 1.379.312 4.16 1.633-.93 4.875-4.468-.012-1.399-.218-1.332 3.171-1.332 3.168 1.133.848 3.137 3.184-2.832 4.078-4.079-1.832-1.191-.766-2.504 2.352-2.508 2.351.692 1.239 1.57 4.183-4.246 2.574-2.98-3.332-.778-1.187-3.246 1.133-3.246 1.129.129 1.414-.266 4.46-4.926.622-1.367-4.254-.226-1.399-6.852-.578-.457 1.344-2.059 3.965-4.753-1.434.484-4.441.36-1.371-6.024-3.313-.965 1.04-3.492 2.784zm0 0" fill="#4063d8"/></g></g><g clip-path="url(#q)"><g clip-path="url(#r)"><path d="M108.832 179.742l2.246-3.863.887-1.106-4.156-5.476-1.305.558-4.324 1.125-2.114-4.492 3.625-2.613 1.262-.648-1.57-6.696-1.418-.02-4.41-.73-.102-4.965 4.371-.914 1.418-.082.645-3.375.64-3.375-1.285-.597-3.73-2.461 1.925-4.575 4.368.942 1.324.504 1.96-2.824 1.966-2.825-.934-1.066-2.406-3.766 3.617-3.398 3.61 2.64 1.003.997 2.942-1.782 2.941-1.777-.418-1.355-.668-4.418 4.688-1.633 2.222 3.875.512 1.324 3.41-.434 3.41-.43.168-1.406 1.192-4.308 4.945.414.453 4.445-.07 1.418 3.293.992 3.289.993.726-1.215 2.84-3.453 4.348 2.39-1.395 4.246-.636 1.266 5.203 4.492 1.16-.816 3.996-2 3 3.953-3 3.312-1.098.899 1.465 3.11 1.461 3.109 1.39-.274 4.466-.203 1.132 4.836-4.085 1.805-1.368.37.07 3.438.075 3.438 1.379.312 4.16 1.633-.93 4.875-4.468-.012-1.399-.218-1.332 3.171-1.332 3.168 1.133.848 3.137 3.184-2.832 4.078-4.079-1.832-1.191-.766-2.504 2.352-2.508 2.351.692 1.239 1.57 4.183-4.246 2.574-2.98-3.332-.778-1.187-3.246 1.133-3.246 1.129.129 1.414-.266 4.46-4.926.622-1.367-4.254-.226-1.399-6.852-.578-.457 1.344-2.059 3.965-4.753-1.434.484-4.441.36-1.371-6.024-3.313-.965 1.04-3.492 2.784zm0 0" fill="none" stroke-width=".25" stroke="#000" stroke-miterlimit="10"/></g></g><use xlink:href="#s" x="47.167" y="111.85"/><use xlink:href="#t" x="68.868" y="111.85"/><use xlink:href="#u" x="88.362" y="111.85"/><use xlink:href="#v" x="106.563" y="111.85"/><use xlink:href="#w" x="116.397" y="111.85"/><use xlink:href="#t" x="133.338" y="111.85"/><path d="M162.5 100l-.04 37.566-.116 5.559-.192 3.598-.277 2.695-.355 2.156-.446 1.793-.535 1.524-.633 1.308-.738 1.133-.852.984-.984.852-1.133.738-1.308.633-1.524.535-1.793.446-2.156.355-2.695.277-3.598.192-5.559.117-37.53.039-37.602-.04-5.559-.116-3.598-.192-2.695-.277-2.156-.355-1.793-.446-1.524-.535-1.308-.633-1.133-.738-.984-.852-.852-.984-.738-1.133-.633-1.308-.535-1.524-.446-1.793-.355-2.156-.277-2.695-.192-3.598-.117-5.559-.039-37.523.04-37.61.116-5.558.192-3.598.277-2.695.355-2.156.446-1.793.535-1.524.633-1.308.738-1.133.852-.984.984-.852 1.133-.738 1.308-.633 1.524-.535 1.793-.446 2.156-.355 2.695-.277 3.598-.192 5.559-.117 37.523-.039 37.61.04 5.558.116 3.598.192 2.695.277 2.156.355 1.793.446 1.524.535 1.308.633 1.133.738.984.852.852.984.738 1.133.633 1.308.535 1.524.446 1.793.355 2.156.277 2.695.192 3.598.117 5.559.039 37.52zm0 0" fill="none" stroke-width="3" stroke="#000" stroke-miterlimit="10"/><g fill="#4063d8"><use xlink:href="#x" x="206" y="133.1"/><use xlink:href="#y" x="268" y="133.1"/><use xlink:href="#z" x="323.7" y="133.1"/><use xlink:href="#A" x="375.7" y="133.1"/></g><path d="M437.902 44.898l-2.613.082-2.465.25-2.316.407-2.16.562-2.012.696-1.844.835-1.687.958-1.52 1.082-1.36 1.183-1.183 1.293-1.012 1.383-.828 1.476-.656 1.547-.469 1.621-.28 1.684-.095 1.742.246 2.985.739 2.734 1.222 2.48 1.715 2.239 2.188 1.98 2.66 1.742 3.129 1.493 3.601 1.25 5.649 1.773 1.89.723 1.383.687.934.695.574.77.29.887.081 1.062-.117.98-.34.852-.562.723-.758.594-.961.453-1.149.332-2.816.265-1.871-.105-1.848-.29-1.82-.464-1.774-.617-3.39-1.649-3.094-2.074-8.5 9.5 2.113 1.75 2.375 1.578 2.598 1.383 2.813 1.176 2.996.937 3.16.696 3.308.43 3.434.152 2.578-.082 2.485-.239 2.378-.394 2.274-.54 2.14-.69 2.012-.825 1.863-.965 1.72-1.093 1.542-1.235 1.375-1.347 1.188-1.477 1-1.582.789-1.703.582-1.809.351-1.914.125-2.008-.27-3.37-.331-1.512-.453-1.407-.59-1.312-.707-1.211-1.79-2.164-2.277-1.863-2.742-1.594-3.199-1.371-3.64-1.196-5.829-1.93-1.902-.78-1.348-.704-.894-.68-.52-.675-.25-.723-.058-.804.074-.688.246-.621.41-.547.59-.46.762-.38.949-.277 2.469-.23 3.304.273 3.293.789 3.215 1.258 3.086 1.68 6.402-9.797-1.953-1.473-2.148-1.309-2.332-1.148-2.485-.961-2.625-.777-2.734-.567-2.832-.351zM461 100z" fill="#cb3c33"/><path d="M459.2 111.7h-41.602v13.198H438.8L415.598 152.5V165H458.3l1.597-13.3h-23.597l22.898-27.5zm1.5 53.3z" fill="#389826"/><g fill="#4063d8"><use xlink:href="#y" x="466.4" y="133.1"/></g></svg>